<svg width="38" height="56" viewBox="0 0 38 56" fill="none" xmlns="http://www.w3.org/2000/svg">
<path d="M30.5946 1.14792H7.03718C3.78458 1.14792 1.14783 3.78263 1.14783 7.03272V48.2263C1.14783 51.4764 3.78458 54.1111 7.03718 54.1111H30.5946C33.8472 54.1111 36.484 51.4764 36.484 48.2263V7.03272C36.484 3.78263 33.8472 1.14792 30.5946 1.14792Z" fill="white" stroke="black" stroke-width="2"/>
<path d="M30.594 4.08952H7.03658C5.41028 4.08952 4.09191 5.40688 4.09191 7.03192V48.2255C4.09191 49.8506 5.41028 51.1679 7.03658 51.1679H30.594C32.2203 51.1679 33.5387 49.8506 33.5387 48.2255V7.03192C33.5387 5.40688 32.2203 4.08952 30.594 4.08952Z" fill="#FFAA00" fill-opacity="0.94"/>
<path fill-rule="evenodd" clip-rule="evenodd" d="M27.6493 12.9167C14.6389 12.9167 4.09191 23.4556 4.09191 36.4559C4.09191 39.706 6.72866 42.3407 9.98126 42.3407C22.9916 42.3407 33.5387 31.8019 33.5387 18.8015C33.5387 15.5514 30.9019 12.9167 27.6493 12.9167Z" fill="white"/>
</svg>
