<svg width="38" height="56" viewBox="0 0 38 56" fill="none" xmlns="http://www.w3.org/2000/svg">
<path d="M30.9634 1.92635H7.40602C4.15342 1.92635 1.51666 4.56106 1.51666 7.81115V49.0048C1.51666 52.2549 4.15342 54.8896 7.40602 54.8896H30.9634C34.216 54.8896 36.8528 52.2549 36.8528 49.0048V7.81115C36.8528 4.56106 34.216 1.92635 30.9634 1.92635Z" fill="white" stroke="black" stroke-width="2"/>
<path d="M30.9634 4.86877H7.40603C5.77972 4.86877 4.46135 6.18613 4.46135 7.81117V49.0048C4.46135 50.6298 5.77972 51.9472 7.40603 51.9472H30.9634C32.5897 51.9472 33.9081 50.6298 33.9081 49.0048V7.81117C33.9081 6.18613 32.5897 4.86877 30.9634 4.86877Z" fill="black"/>
<path fill-rule="evenodd" clip-rule="evenodd" d="M28.0188 13.696C15.0084 13.696 4.46135 24.2348 4.46135 37.2352C4.46135 40.4853 7.0981 43.12 10.3507 43.12C23.3611 43.12 33.9081 32.5811 33.9081 19.5808C33.9081 16.3307 31.2714 13.696 28.0188 13.696Z" fill="black"/>
<g clip-path="url(#clip0)">
<path fill-rule="evenodd" clip-rule="evenodd" d="M14.2556 20.8795C17.0537 18.3078 20.462 17.017 23.5028 16.908C30.4317 16.6764 32.238 21.3628 30.1002 27.2702C29.1237 29.9775 27.3599 32.7974 24.896 34.9348C20.8487 38.4486 16.4293 39.7641 13.0348 38.8024C9.62481 37.8449 8.13641 35.0922 8.3423 31.6886C8.5465 28.1541 10.6564 24.0105 14.2556 20.8795V20.8795Z" fill="#ED1C24"/>
<path d="M25.4879 21.8256C25.5215 22.0135 25.5708 22.1973 25.6512 22.3727C25.7356 22.5635 25.8398 22.7654 25.971 22.9436C26.1579 23.2054 26.3833 23.424 26.612 23.5925C26.8211 23.7499 27.0489 23.853 27.2997 23.9171C27.593 23.9534 27.8585 23.9479 28.0568 23.8784C28.228 23.8325 28.3403 23.7532 28.4131 23.6516C28.459 23.5736 28.4811 23.4692 28.4638 23.3425C28.4498 23.1657 28.3612 22.9597 28.2407 22.6965C28.2046 22.6241 28.1726 22.567 28.1365 22.4946C28.1045 22.4376 28.0529 22.3693 28.0209 22.3122C27.7864 21.9975 27.5134 21.726 27.2143 21.5435C26.9544 21.3834 26.6643 21.2969 26.3792 21.2913C26.0784 21.2898 25.8449 21.3524 25.6901 21.4595C25.5934 21.5346 25.5206 21.6363 25.5067 21.7713L25.4879 21.8256ZM24.2061 17.5403C25.4562 16.6636 26.8549 16.4038 28.1742 16.6576C29.5444 16.9141 30.8165 17.7387 31.6954 18.964C32.1964 19.6505 32.5187 20.4177 32.6731 21.1806C32.8316 21.9588 32.8262 22.7481 32.629 23.5068C32.6217 23.5416 32.6184 23.5917 32.5881 23.6655C32.5734 23.7351 32.5546 23.7893 32.5472 23.8241C32.2289 24.8779 31.8294 25.6907 31.3806 26.3198C30.9162 26.9531 30.4223 27.4137 29.9038 27.7824C28.6267 28.6827 27.1969 28.9509 25.8619 28.7013C24.4565 28.4377 23.173 27.6327 22.2899 26.392C21.8086 25.7167 21.4675 25.0038 21.3057 24.2757C21.1399 23.5323 21.1224 22.7819 21.2728 22.0358C21.3906 21.479 21.628 20.8081 21.9981 20.1344C22.3223 19.5387 22.744 18.9333 23.2445 18.3724C23.3714 18.2235 23.518 18.0857 23.6647 17.948C23.8736 17.7935 24.0357 17.6516 24.2061 17.5403V17.5403Z" fill="white"/>
<path d="M18.4031 21.7871L20.5354 20.2801C20.7329 20.1451 20.9951 20.1898 21.1304 20.3833C21.1345 20.3986 21.1501 20.3945 21.1542 20.4098L26.8844 28.3452C26.9279 28.3829 26.9598 28.4399 26.9763 28.5012C27.0247 28.6195 27.0108 28.7546 26.9379 28.8562L26.124 30.2397C26.0896 30.2981 26.0511 30.3413 25.9929 30.3733L24.2358 31.5991C24.1235 31.6784 23.9793 31.7007 23.8498 31.6533L21.2691 30.8019L21.9808 31.7766C22.0283 31.8295 22.08 31.8977 22.1005 31.9743C22.1292 32.0815 22.1113 32.2012 22.0498 32.2833L21.2359 33.6668C21.2015 33.7253 21.163 33.7684 21.1204 33.7962L18.9725 35.3074C18.7751 35.4423 18.5129 35.3977 18.3776 35.2042L12.5916 27.1851C12.4842 27.0334 12.4816 26.8371 12.593 26.6923L13.384 25.3478C13.4184 25.2894 13.4569 25.2462 13.5151 25.2142L15.3844 23.909C15.4967 23.8297 15.6409 23.8075 15.7704 23.8549L18.1429 24.6143L17.5067 23.7343C17.4034 23.5979 17.4049 23.4169 17.4852 23.2805L18.2835 21.9012C18.322 21.858 18.3605 21.8149 18.4031 21.7871V21.7871Z" fill="white"/>
<path d="M14.2581 38.5731C13.3487 38.9153 12.4941 38.9637 11.6828 38.7379C10.5854 38.4411 9.62638 37.664 8.81141 36.5528L5.622 32.1221C5.5146 31.9703 5.51205 31.774 5.62343 31.6293L6.41444 30.2847C6.44883 30.2263 6.48732 30.1831 6.52992 30.1553L8.67781 28.6442C8.87524 28.5092 9.13747 28.5538 9.27275 28.7474L12.5376 33.2728C12.7245 33.5346 12.9541 33.7685 13.2212 33.8939C13.4138 33.99 13.6408 34.0277 13.894 33.9763C13.9407 33.9637 14.003 33.9471 14.0497 33.9345C14.0251 33.8427 13.9849 33.7549 13.9447 33.6672C13.8766 33.5377 13.8086 33.4083 13.7053 33.2718L10.4404 28.7464C10.333 28.5946 10.3305 28.3983 10.4419 28.2536L11.2099 26.948C11.2402 26.8743 11.2902 26.8116 11.3598 26.7602L13.5077 25.249C13.7051 25.1141 13.9674 25.1587 14.1026 25.3522L17.3396 29.8359C17.8406 30.5223 18.1776 31.2199 18.3467 31.9132C18.5158 32.6065 18.5325 33.2915 18.3615 33.961C18.22 34.4914 17.849 35.0996 17.4781 35.7078C17.3978 35.8442 17.302 35.9848 17.2332 36.1017L17.2218 36.1212C17.0883 36.3703 16.9196 36.6125 16.7271 36.8282C16.0809 37.5923 15.2257 38.199 14.2581 38.5731V38.5731Z" fill="white"/>
<path fill-rule="evenodd" clip-rule="evenodd" d="M23.9931 31.2538L20.1691 29.9969L21.6646 32.0911L21.6802 32.0869L20.8622 33.4551L18.7184 34.9815L12.9324 26.9625L13.7463 25.579L15.6312 24.2697L19.2273 25.4235L17.8475 23.5117L18.6458 22.1324L20.7781 20.6254L26.5797 28.6403L25.7658 30.0238L23.9931 31.2538Z" fill="black"/>
<path fill-rule="evenodd" clip-rule="evenodd" d="M24.4644 17.8814C26.8097 16.2353 29.764 16.9866 31.3587 19.202C32.2852 20.4802 32.5866 22.0409 32.2414 23.4301C32.2308 23.515 32.2046 23.6041 32.1784 23.6932C31.572 25.7268 30.6596 26.7428 29.6922 27.4288C27.2772 29.1264 24.2836 28.3528 22.6733 26.1416C21.7665 24.8745 21.4439 23.4836 21.7268 22.1111C21.9288 21.1214 22.583 19.7643 23.5994 18.6384C23.8418 18.3601 24.1392 18.0999 24.4644 17.8814V17.8814ZM25.0626 21.8575C25.0585 21.8421 25.0699 21.8227 25.0658 21.8073C25.0894 21.2101 25.6046 20.8915 26.3544 20.8876C27.1197 20.8795 27.841 21.392 28.342 22.0785C28.4453 22.2149 28.533 22.3556 28.6093 22.5157C28.9177 23.106 28.9744 23.5668 28.7754 23.8828C28.542 24.2572 27.9701 24.4268 27.2425 24.3264C26.6196 24.1814 26.0557 23.758 25.6343 23.1815C25.3244 22.7722 25.1349 22.3141 25.0626 21.8575Z" fill="black"/>
<path fill-rule="evenodd" clip-rule="evenodd" d="M18.6261 27.8498L21.6646 32.0911L19.5167 33.6022L13.7463 25.579L15.6312 24.2697L21.5605 26.1607L18.6458 22.1324L20.7781 20.6254L26.5797 28.6403L24.807 29.8703L18.6261 27.8498Z" fill="black"/>
<path fill-rule="evenodd" clip-rule="evenodd" d="M17.7785 27.2397L21.2262 32.0116L19.5969 33.154L14.2003 25.6544L15.6748 24.6191L22.3925 26.7749L19.0998 22.2077L20.698 21.0737L26.1257 28.5649L24.7479 29.5251L17.7785 27.2397Z" fill="white"/>
<path fill-rule="evenodd" clip-rule="evenodd" d="M19.4128 22.2551L20.6473 21.3827L25.7971 28.5217L24.7133 29.2717L17.1949 26.8052L20.9132 31.9642L19.6631 32.8408L14.5174 25.7171L15.7093 24.8725L22.972 27.1941L19.4128 22.2551Z" fill="#F8DA27"/>
<path fill-rule="evenodd" clip-rule="evenodd" d="M24.4644 17.8814C26.8097 16.2353 29.7641 16.9866 31.3588 19.202C32.9535 21.4173 32.7113 24.4367 30.3816 26.0787C28.0363 27.7247 25.0819 26.9734 23.4872 24.7581C21.8729 22.5316 22.1191 19.5275 24.4644 17.8814ZM25.9238 19.9032C24.7434 20.7284 24.8628 22.108 25.6343 23.1815C26.4017 24.2398 27.6704 24.8026 28.8664 23.9733C30.0428 23.1328 29.9275 21.7685 29.1559 20.695C28.373 19.6409 27.1043 19.0781 25.9238 19.9032Z" fill="black"/>
<path fill-rule="evenodd" clip-rule="evenodd" d="M24.6513 18.1432C26.8418 16.6042 29.6003 17.3095 31.1113 19.3996C32.6027 21.4785 32.3892 24.2932 30.2028 25.8475C28.0123 27.3865 25.2498 26.6658 23.7428 24.5911C22.2473 22.4969 22.4453 19.6863 24.6513 18.1432ZM25.7369 19.6414C24.4016 20.5737 24.4924 22.158 25.3672 23.368C26.242 24.578 27.7025 25.1715 29.0533 24.2351C30.3845 23.2875 30.2978 21.7186 29.4271 20.5239C28.5367 19.318 27.0721 18.7092 25.7369 19.6414V19.6414Z" fill="white"/>
<path fill-rule="evenodd" clip-rule="evenodd" d="M25.6057 19.4632C26.995 18.4836 28.6071 19.0201 29.5893 20.3819C30.5715 21.7437 30.5542 23.4226 29.1649 24.4022C27.7755 25.3817 26.1479 24.8494 25.1657 23.4876C24.1876 22.1411 24.2164 20.4428 25.6057 19.4632ZM24.7825 18.3214C26.8297 16.8701 29.466 17.4932 30.9254 19.5151C32.3848 21.5369 32.1147 24.2027 30.079 25.6345C28.0278 27.0705 25.3956 26.4626 23.9362 24.4408C22.4612 22.4232 22.7157 19.7616 24.7825 18.3214Z" fill="#F8DA27"/>
<path fill-rule="evenodd" clip-rule="evenodd" d="M13.9065 38.257C12.0671 38.8647 10.4279 38.0401 9.17511 36.2912L5.98571 31.8604L6.78407 30.4811L8.93197 28.97L12.1968 33.4954C12.6182 34.0719 13.2215 34.5176 13.9925 34.3438C14.2145 34.3007 14.5021 34.1908 14.4905 33.8985C14.4199 33.5727 14.2715 33.2678 14.0649 32.9949L10.8 28.4695L11.614 27.086L13.7463 25.579L16.9832 30.0627C17.9138 31.3562 18.2585 32.6426 17.946 33.8425C17.7971 34.4077 17.2836 35.169 16.8709 35.8705C16.2528 36.9881 15.1043 37.8703 13.9065 38.257V38.257Z" fill="black"/>
<path fill-rule="evenodd" clip-rule="evenodd" d="M16.5964 35.7799L16.6202 35.8064L16.1713 36.1236C16.1557 36.1278 16.1442 36.1473 16.1442 36.1473C16.1287 36.1514 16.1172 36.1709 16.1016 36.1751L15.6527 36.4923L15.629 36.4659C13.4113 37.7167 11.4485 36.9295 9.98904 34.9077L6.79964 30.477L8.94753 28.9658L12.2124 33.4912C12.6338 34.0677 13.2371 34.5134 14.0081 34.3396C14.2301 34.2965 14.4513 34.188 14.6332 34.0572C14.8306 33.9223 15.0001 33.7455 15.1148 33.5507C15.5242 32.8993 15.3002 32.1878 14.8788 31.6114L11.5984 27.0901L13.7463 25.579L16.9832 30.0627C18.4468 32.0998 18.5394 34.1267 16.5964 35.7799V35.7799Z" fill="black"/>
<path fill-rule="evenodd" clip-rule="evenodd" d="M16.1506 35.7352L15.9688 35.866C15.9532 35.8702 15.9417 35.8897 15.9262 35.8938C15.9106 35.898 15.8991 35.9175 15.8836 35.9217L15.7017 36.0525C13.5325 37.4216 11.6606 36.7249 10.2446 34.7407L7.24217 30.5718L8.85596 29.4336L11.9338 33.6972C12.4348 34.3837 13.1676 34.8767 14.0631 34.6696C14.3319 34.614 14.5842 34.4971 14.8086 34.3385C15.0331 34.1799 15.2452 33.9753 15.3828 33.7415C15.861 32.9732 15.6353 32.1309 15.1344 31.4444L12.0565 27.1808L13.6703 26.0426L16.7203 30.2644C18.1518 32.2445 18.1805 34.1572 16.1506 35.7352V35.7352Z" fill="white"/>
<path fill-rule="evenodd" clip-rule="evenodd" d="M7.55521 30.6192L8.80528 29.7426L11.752 33.828C12.7301 35.1745 14.0264 35.1554 14.9398 34.5167C15.8491 33.8627 16.3099 32.6559 15.3162 31.3136L12.3695 27.2282L13.6196 26.3516L16.5384 30.3952C17.7035 32.0035 18.2288 33.9637 15.8417 35.7031C15.8261 35.7073 15.8147 35.7268 15.7991 35.7309C15.7835 35.7351 15.7721 35.7546 15.7565 35.7588C13.3874 37.3784 11.608 36.2794 10.415 34.6294L7.55521 30.6192Z" fill="#F8DA27"/>
<path fill-rule="evenodd" clip-rule="evenodd" d="M18.2219 23.477L18.8483 22.39L19.6715 23.5318L19.0451 24.6188L18.2219 23.477ZM19.3157 25.0059L19.9421 23.9189L20.2561 24.3436L19.6297 25.4306L19.3157 25.0059Z" fill="#58585A"/>
<path fill-rule="evenodd" clip-rule="evenodd" d="M11.1786 28.4501L11.805 27.3631L12.6282 28.5049L12.0018 29.5919L11.1786 28.4501ZM12.2723 29.979L12.8987 28.892L13.2128 29.3167L12.5864 30.4037L12.2723 29.979Z" fill="#58585A"/>
<path fill-rule="evenodd" clip-rule="evenodd" d="M8.20577 34.4171L8.83218 33.3301L9.65535 34.4718L9.02895 35.5589L8.20577 34.4171ZM9.31509 35.9418L9.94149 34.8548L9.98904 34.9077C10.0882 35.0288 10.1719 35.1541 10.2711 35.2753L9.6291 36.3665L9.31509 35.9418Z" fill="#58585A"/>
<path fill-rule="evenodd" clip-rule="evenodd" d="M27.2901 20.7682L27.9321 19.677C28.3091 19.8386 28.6681 20.1199 28.9616 20.468L28.3311 21.5397C28.0458 21.2222 27.6868 20.9409 27.2901 20.7682ZM28.6287 21.9031L29.2437 20.8356C29.3552 21.0027 29.4314 21.1628 29.5118 21.3382L28.9042 22.371L28.9001 22.3557C28.828 22.2109 28.7361 22.0549 28.6287 21.9031Z" fill="#58585A"/>
</g>
<defs>
<clipPath id="clip0">
<rect width="29" height="20" fill="white" transform="translate(2.90589 22.0936) rotate(-15)"/>
</clipPath>
</defs>
</svg>
