<svg width="38" height="56" viewBox="0 0 38 56" fill="none" xmlns="http://www.w3.org/2000/svg">
<path d="M30.9634 1.14714H7.40602C4.15342 1.14714 1.51666 3.78186 1.51666 7.03194V48.2256C1.51666 51.4756 4.15342 54.1104 7.40602 54.1104H30.9634C34.216 54.1104 36.8528 51.4756 36.8528 48.2256V7.03194C36.8528 3.78186 34.216 1.14714 30.9634 1.14714Z" fill="white" stroke="black" stroke-width="2"/>
<path d="M30.9634 4.08954H7.40603C5.77972 4.08954 4.46135 5.4069 4.46135 7.03194V48.2256C4.46135 49.8506 5.77972 51.168 7.40603 51.168H30.9634C32.5897 51.168 33.9081 49.8506 33.9081 48.2256V7.03194C33.9081 5.4069 32.5897 4.08954 30.9634 4.08954Z" fill="black"/>
<path fill-rule="evenodd" clip-rule="evenodd" d="M28.0188 12.9167C15.0084 12.9167 4.46135 23.4556 4.46135 36.4559C4.46135 39.706 7.0981 42.3407 10.3507 42.3407C23.3611 42.3407 33.9081 31.8019 33.9081 18.8015C33.9081 15.5515 31.2714 12.9167 28.0188 12.9167Z" fill="white"/>
<path fill-rule="evenodd" clip-rule="evenodd" d="M6.19135 27.6288C5.08522 30.3566 4.46135 33.3316 4.46135 36.456C4.46135 39.706 7.0981 42.3407 10.3507 42.3407L19.1847 27.6288H6.19135Z" fill="#FFAA00"/>
<path fill-rule="evenodd" clip-rule="evenodd" d="M19.1847 27.6288L10.3507 42.3407C20.2343 42.3407 28.6816 36.2516 32.1781 27.6288H19.1847Z" fill="#00AA00"/>
<path fill-rule="evenodd" clip-rule="evenodd" d="M28.0188 12.9167C18.1351 12.9167 9.68778 19.0059 6.19133 27.6288H19.1847L28.0188 12.9167Z" fill="#FF5555"/>
<path fill-rule="evenodd" clip-rule="evenodd" d="M28.0188 12.9167L19.1847 27.6288H32.1781C33.2843 24.9009 33.9081 21.9259 33.9081 18.8015C33.9081 15.5515 31.2714 12.9167 28.0188 12.9167Z" fill="#5555FF"/>
<path fill-rule="evenodd" clip-rule="evenodd" d="M6.3662 9.23871C6.08966 9.92068 5.9337 10.6644 5.9337 11.4455C5.9337 12.258 6.59289 12.9167 7.40604 12.9167L9.61455 9.23871H6.3662Z" fill="#FFAA00"/>
<path fill-rule="evenodd" clip-rule="evenodd" d="M9.61453 9.23871L7.40602 12.9167C9.87693 12.9167 11.9888 11.3944 12.8629 9.23871H9.61453Z" fill="#00AA00"/>
<path fill-rule="evenodd" clip-rule="evenodd" d="M11.823 5.5607C9.35211 5.5607 7.24028 7.083 6.36617 9.23871H9.61451L11.823 5.5607Z" fill="#FF5555"/>
<path fill-rule="evenodd" clip-rule="evenodd" d="M11.823 5.5607L9.61455 9.23871H12.8629C13.1394 8.55674 13.2954 7.81299 13.2954 7.03191C13.2954 6.21938 12.6362 5.5607 11.823 5.5607Z" fill="#5555FF"/>
<path fill-rule="evenodd" clip-rule="evenodd" d="M25.5066 46.0187C25.23 46.7007 25.0741 47.4444 25.0741 48.2255C25.0741 49.038 25.7333 49.6967 26.5464 49.6967L28.7549 46.0187H25.5066Z" fill="#FFAA00"/>
<path fill-rule="evenodd" clip-rule="evenodd" d="M28.7549 46.0187L26.5464 49.6967C29.0173 49.6967 31.1291 48.1744 32.0033 46.0187H28.7549Z" fill="#00AA00"/>
<path fill-rule="evenodd" clip-rule="evenodd" d="M30.9634 42.3407C28.4925 42.3407 26.3807 43.863 25.5066 46.0187H28.7549L30.9634 42.3407Z" fill="#FF5555"/>
<path fill-rule="evenodd" clip-rule="evenodd" d="M30.9634 42.3407L28.7549 46.0187H32.0032C32.2798 45.3368 32.4357 44.593 32.4357 43.8119C32.4357 42.9994 31.7766 42.3407 30.9634 42.3407Z" fill="#5555FF"/>
<path d="M28.0188 12.9167C18.1351 12.9167 9.6878 19.0059 6.19135 27.6287C5.08522 30.3566 4.46135 33.3316 4.46135 36.4559C4.46135 39.706 7.0981 42.3407 10.3507 42.3407C20.2344 42.3407 28.6817 36.2516 32.1781 27.6287C33.2843 24.9009 33.9081 21.9259 33.9081 18.8015C33.9081 15.5514 31.2714 12.9167 28.0188 12.9167Z" stroke="white" stroke-width="4"/>
<path d="M11.823 5.56072C9.35213 5.56072 7.24031 7.08302 6.3662 9.23873C6.08966 9.9207 5.9337 10.6644 5.9337 11.4455C5.9337 12.258 6.59289 12.9167 7.40603 12.9167C9.87693 12.9167 11.9888 11.3944 12.8629 9.23873C13.1394 8.55675 13.2954 7.81301 13.2954 7.03192C13.2954 6.2194 12.6362 5.56072 11.823 5.56072Z" stroke="white" stroke-width="4"/>
<path d="M30.9634 42.3407C28.4925 42.3407 26.3807 43.863 25.5066 46.0187C25.23 46.7007 25.0741 47.4445 25.0741 48.2255C25.0741 49.0381 25.7333 49.6967 26.5464 49.6967C29.0173 49.6967 31.1291 48.1744 32.0032 46.0187C32.2798 45.3368 32.4357 44.593 32.4357 43.8119C32.4357 42.9994 31.7766 42.3407 30.9634 42.3407Z" stroke="white" stroke-width="4"/>
</svg>
