<svg width="38" height="55" viewBox="0 0 38 55" fill="none" xmlns="http://www.w3.org/2000/svg">
<path d="M30.9634 1.00009H7.40602C4.15342 1.00009 1.51666 3.6348 1.51666 6.88488V48.0784C1.51666 51.3285 4.15342 53.9632 7.40602 53.9632H30.9634C34.216 53.9632 36.8528 51.3285 36.8528 48.0784V6.88488C36.8528 3.6348 34.216 1.00009 30.9634 1.00009Z" fill="white" stroke="black" stroke-width="2"/>
<path d="M30.9634 3.94238H7.40603C5.77973 3.94238 4.46135 5.25974 4.46135 6.88479V48.0785C4.46135 49.7035 5.77973 51.0209 7.40603 51.0209H30.9634C32.5898 51.0209 33.9081 49.7035 33.9081 48.0785V6.88479C33.9081 5.25974 32.5898 3.94238 30.9634 3.94238Z" fill="black"/>
<path fill-rule="evenodd" clip-rule="evenodd" d="M28.0188 12.7696C15.0084 12.7696 4.46135 23.3085 4.46135 36.3088C4.46135 39.5589 7.0981 42.1936 10.3507 42.1936C23.3611 42.1936 33.9081 31.6547 33.9081 18.6544C33.9081 15.4043 31.2714 12.7696 28.0188 12.7696Z" fill="white"/>
<path d="M13.2365 5.41357L10.3507 11.2983V12.7695H13.8843V14.2407H15.3567V12.7695H16.2401V11.2983H15.3567V8.35594H13.8843V11.2983H11.8819L14.7677 5.41357H13.2365Z" fill="white"/>
<path fill-rule="evenodd" clip-rule="evenodd" d="M6.52262 8.35609V9.82726H5.05028V11.2984H6.52262V12.7696H7.99496V11.2984H9.4673V9.82726H7.99496V8.35609H6.52262Z" fill="white"/>
<path d="M25.133 49.5496L28.0188 43.6648V42.1936H24.4851V40.7224H23.0128V42.1936H22.1294V43.6648H23.0128V46.6072H24.4851V43.6648H26.4875L23.6017 49.5496H25.133Z" fill="white"/>
<path fill-rule="evenodd" clip-rule="evenodd" d="M31.8468 46.6072V45.136H33.3192V43.6648H31.8468V42.1936H30.3745V43.6648H28.9021V45.136H30.3745V46.6072H31.8468Z" fill="white"/>
<path d="M19.6054 20.1255H13.716C12.9029 20.1255 12.0736 20.7203 11.8638 21.454L8.83754 32.0379C8.62775 32.7716 9.11687 33.3663 9.93002 33.3663H15.8194C16.6325 33.3663 17.4618 32.7716 17.6716 32.0379L20.6979 21.454C20.9076 20.7203 20.4185 20.1255 19.6054 20.1255Z" fill="white" stroke="black" stroke-width="2.03962"/>
<path d="M17.7124 21.5967H14.7677C13.9545 21.5967 13.1253 22.1915 12.9155 22.9252L10.7305 30.5667C10.5207 31.3004 11.0098 31.8952 11.823 31.8952H14.7677C15.5808 31.8952 16.4101 31.3004 16.6199 30.5667L18.8049 22.9252C19.0147 22.1915 18.5255 21.5967 17.7124 21.5967Z" fill="#FF5555"/>
<path d="M25.4947 15.7118H19.6054C18.7922 15.7118 17.963 16.3066 17.7532 17.0403L14.7269 27.6243C14.5171 28.358 15.0062 28.9527 15.8194 28.9527H21.7087C22.5219 28.9527 23.3511 28.358 23.5609 27.6243L26.5872 17.0403C26.797 16.3066 26.3079 15.7118 25.4947 15.7118Z" fill="white" stroke="black" stroke-width="2.03962"/>
<path d="M23.6017 17.1832H20.657C19.8439 17.1832 19.0146 17.7779 18.8048 18.5116L16.6199 26.1531C16.4101 26.8868 16.8992 27.4816 17.7123 27.4816H20.657C21.4702 27.4816 22.2995 26.8868 22.5092 26.1531L24.6942 18.5116C24.904 17.7779 24.4149 17.1832 23.6017 17.1832Z" fill="#5555FF"/>
<path d="M24.0224 24.5391H18.1331C17.3199 24.5391 16.4907 25.1339 16.2809 25.8676L13.2546 36.4514C13.0448 37.1851 13.5339 37.7798 14.3471 37.7798H20.2364C21.0496 37.7798 21.8788 37.1851 22.0886 36.4514L25.1149 25.8676C25.3247 25.1339 24.8356 24.5391 24.0224 24.5391Z" fill="white" stroke="black" stroke-width="2.03962"/>
<path d="M22.1294 26.0102H19.1847C18.3715 26.0102 17.5423 26.605 17.3325 27.3387L15.1475 34.9803C14.9377 35.714 15.4268 36.3088 16.24 36.3088H19.1847C19.9978 36.3088 20.8271 35.714 21.0369 34.9803L23.2219 27.3387C23.4317 26.605 22.9425 26.0102 22.1294 26.0102Z" fill="#FFAA00"/>
<path d="M29.9118 20.1256H24.0224C23.2093 20.1256 22.38 20.7204 22.1702 21.4541L19.1439 32.0379C18.9341 32.7716 19.4232 33.3664 20.2364 33.3664H26.1257C26.9389 33.3664 27.7682 32.7716 27.9779 32.0379L31.0043 21.4541C31.214 20.7204 30.7249 20.1256 29.9118 20.1256Z" fill="white" stroke="black" stroke-width="2.03962"/>
<path d="M28.0187 21.5967H25.074C24.2609 21.5967 23.4316 22.1914 23.2218 22.9251L21.0369 30.5667C20.8271 31.3004 21.3162 31.8952 22.1293 31.8952H25.074C25.8872 31.8952 26.7164 31.3004 26.9262 30.5667L29.1112 22.9251C29.321 22.1914 28.8319 21.5967 28.0187 21.5967Z" fill="#55AA55"/>
</svg>
