<svg width="38" height="56" viewBox="0 0 38 56" fill="none" xmlns="http://www.w3.org/2000/svg">
<path d="M30.6273 1.14711H7.0699C3.8173 1.14711 1.18054 3.78183 1.18054 7.03191V48.2255C1.18054 51.4756 3.8173 54.1103 7.0699 54.1103H30.6273C33.8799 54.1103 36.5167 51.4756 36.5167 48.2255V7.03191C36.5167 3.78183 33.8799 1.14711 30.6273 1.14711Z" fill="white" stroke="black" stroke-width="2"/>
<path d="M30.6273 4.08951H7.0699C5.4436 4.08951 4.12523 5.40687 4.12523 7.03191V48.2255C4.12523 49.8506 5.4436 51.1679 7.0699 51.1679H30.6273C32.2536 51.1679 33.572 49.8506 33.572 48.2255V7.03191C33.572 5.40687 32.2536 4.08951 30.6273 4.08951Z" fill="#FF5555"/>
<path fill-rule="evenodd" clip-rule="evenodd" d="M27.6826 12.9167C14.6722 12.9167 4.12523 23.4556 4.12523 36.4559C4.12523 39.706 6.76198 42.3407 10.0146 42.3407C23.025 42.3407 33.572 31.8019 33.572 18.8015C33.572 15.5514 30.9353 12.9167 27.6826 12.9167Z" fill="white"/>
<path d="M20.7416 23.2151H14.8523C14.0391 23.2151 13.2099 23.8098 13.0001 24.5435L9.97375 35.1274C9.76396 35.8611 10.2531 36.4559 11.0662 36.4559H16.9556C17.7687 36.4559 18.598 35.8611 18.8078 35.1274L21.8341 24.5435C22.0439 23.8098 21.5548 23.2151 20.7416 23.2151Z" fill="white" stroke="black" stroke-width="2.03962"/>
<path d="M18.8486 24.6863H15.9039C15.0908 24.6863 14.2615 25.2811 14.0517 26.0148L11.8667 33.6562C11.657 34.3899 12.1461 34.9847 12.9592 34.9847H15.9039C16.7171 34.9847 17.5463 34.3899 17.7561 33.6562L19.9411 26.0148C20.1509 25.2811 19.6618 24.6863 18.8486 24.6863Z" fill="#FF5555"/>
<path d="M26.6309 18.8015H20.7416C19.9284 18.8015 19.0992 19.3963 18.8894 20.1299L15.8631 30.7138C15.6533 31.4475 16.1424 32.0423 16.9555 32.0423H22.8449C23.6581 32.0423 24.4873 31.4475 24.6971 30.7138L27.7234 20.1299C27.9332 19.3963 27.4441 18.8015 26.6309 18.8015Z" fill="white" stroke="black" stroke-width="2.03962"/>
<path d="M24.7379 20.2727H21.7932C20.9801 20.2727 20.1508 20.8675 19.941 21.6012L17.7561 29.2426C17.5463 29.9763 18.0354 30.5711 18.8485 30.5711H21.7932C22.6064 30.5711 23.4356 29.9763 23.6454 29.2426L25.8304 21.6012C26.0402 20.8675 25.5511 20.2727 24.7379 20.2727Z" fill="#FF5555"/>
<path fill-rule="evenodd" clip-rule="evenodd" d="M6.1865 8.50308V9.97431H4.71416V11.4455H6.1865V12.9167H7.65884V11.4455H9.13118V9.97431H7.65884V8.50308H6.1865Z" fill="white"/>
<path d="M12.9593 5.56071C11.3279 5.56071 10.0146 6.87303 10.0146 8.50311V8.79736H11.4869V8.50311C11.4869 7.68807 12.1436 7.03191 12.9593 7.03191C13.7749 7.03191 14.4316 7.68807 14.4316 8.50311C14.4316 8.83487 14.1561 9.48591 13.8684 9.71215C12.3063 10.9406 12.3228 10.7377 10.0146 12.3282V14.3879H12.9593H15.9039V12.9167V12.3282H14.4316V12.9167H12.9593H11.7814C13.6042 11.6342 13.7374 11.6653 15.1657 10.3881C15.6234 9.97887 15.9039 9.16669 15.9039 8.50311C15.9039 6.87303 14.5906 5.56071 12.9593 5.56071Z" fill="white"/>
<path fill-rule="evenodd" clip-rule="evenodd" d="M31.5107 46.7544V45.2832H32.983V43.812H31.5107V42.3408H30.0384V43.812H28.5661V45.2832H30.0384V46.7544H31.5107Z" fill="white"/>
<path d="M24.738 49.6968C26.3693 49.6968 27.6826 48.3845 27.6826 46.7544V46.4602H26.2103V46.7544C26.2103 47.5694 25.5536 48.2256 24.738 48.2256C23.9223 48.2256 23.2656 47.5694 23.2656 46.7544C23.2656 46.4227 23.5411 45.7716 23.8288 45.5454C25.3909 44.317 25.3744 44.5198 27.6826 42.9293V40.8696H24.738H21.7933V42.3408V42.9293H23.2656V42.3408H24.738H25.9158C24.0931 43.6233 23.9598 43.5922 22.5315 44.8694C22.0739 45.2787 21.7933 46.0908 21.7933 46.7544C21.7933 48.3845 23.1066 49.6968 24.738 49.6968Z" fill="white"/>
</svg>
