<svg width="39" height="56" viewBox="0 0 39 56" fill="none" xmlns="http://www.w3.org/2000/svg">
<path d="M31.2912 1.14713H7.7338C4.4812 1.14713 1.84445 3.78184 1.84445 7.03192V48.2255C1.84445 51.4756 4.4812 54.1103 7.7338 54.1103H31.2912C34.5438 54.1103 37.1805 51.4756 37.1805 48.2255V7.03192C37.1805 3.78184 34.5438 1.14713 31.2912 1.14713Z" fill="white" stroke="black" stroke-width="2"/>
<path d="M31.2912 4.08953H7.73381C6.10751 4.08953 4.78914 5.40688 4.78914 7.03193V48.2255C4.78914 49.8506 6.10751 51.1679 7.73381 51.1679H31.2912C32.9175 51.1679 34.2359 49.8506 34.2359 48.2255V7.03193C34.2359 5.40688 32.9175 4.08953 31.2912 4.08953Z" fill="#FF5555"/>
<path fill-rule="evenodd" clip-rule="evenodd" d="M28.3465 12.9167C15.3361 12.9167 4.78914 23.4556 4.78914 36.4559C4.78914 39.706 7.42589 42.3407 10.6785 42.3407C23.6889 42.3407 34.2359 31.8019 34.2359 18.8015C34.2359 15.5514 31.5991 12.9167 28.3465 12.9167Z" fill="white"/>
<path d="M19.5125 18.0659L20.9848 19.5371L15.0955 25.4219C13.6231 26.8931 13.6231 29.8355 15.0955 31.3068L18.0402 28.3643L23.9295 22.4795L25.4019 23.9507V18.0659H19.5125Z" fill="#FF5555"/>
<path d="M19.5125 37.1915L18.0402 35.7203L23.9295 29.8355C25.4018 28.3643 25.4018 25.4219 23.9295 23.9507L20.9848 26.8931L15.0955 32.7779L13.6232 31.3067V37.1915H19.5125Z" fill="#FF5555"/>
<path d="M9.20614 5.56071L9.9423 6.29631L6.99764 9.23871C6.26147 9.97431 6.26147 11.4455 6.99764 12.1811L8.46997 10.7099L11.4146 7.76751L12.1508 8.50311V5.56071H9.20614Z" fill="white"/>
<path d="M9.20614 15.1235L8.46997 14.3879L11.4147 11.4455C12.1508 10.7099 12.1508 9.23871 11.4147 8.50311L9.94231 9.97431L6.99763 12.9167L6.26146 12.1811V15.1235H9.20614Z" fill="white"/>
<path d="M29.8189 40.1339L30.5551 40.8695L27.6104 43.8119C26.8742 44.5475 26.8742 46.0187 27.6104 46.7543L29.0827 45.2831L32.0274 42.3407L32.7636 43.0763V40.1339H29.8189Z" fill="white"/>
<path d="M29.8189 49.6967L29.0827 48.9611L32.0274 46.0187C32.7636 45.2831 32.7636 43.8119 32.0274 43.0763L30.555 44.5475L27.6104 47.4899L26.8742 46.7543V49.6967H29.8189Z" fill="white"/>
</svg>
