<svg width="38" height="56" viewBox="0 0 38 56" fill="none" xmlns="http://www.w3.org/2000/svg">
<path d="M30.9551 1.14713H7.39768C4.14508 1.14713 1.50833 3.78184 1.50833 7.03192V48.2255C1.50833 51.4756 4.14508 54.1103 7.39768 54.1103H30.9551C34.2077 54.1103 36.8445 51.4756 36.8445 48.2255V7.03192C36.8445 3.78184 34.2077 1.14713 30.9551 1.14713Z" fill="white" stroke="black" stroke-width="2"/>
<path d="M30.9551 4.08953H7.3977C5.7714 4.08953 4.45302 5.40688 4.45302 7.03193V48.2255C4.45302 49.8506 5.7714 51.1679 7.3977 51.1679H30.9551C32.5814 51.1679 33.8998 49.8506 33.8998 48.2255V7.03193C33.8998 5.40688 32.5814 4.08953 30.9551 4.08953Z" fill="#FF5555"/>
<path fill-rule="evenodd" clip-rule="evenodd" d="M28.0104 12.9167C15 12.9167 4.45302 23.4556 4.45302 36.4559C4.45302 39.706 7.08977 42.3407 10.3424 42.3407C23.3528 42.3407 33.8998 31.8019 33.8998 18.8015C33.8998 15.5514 31.263 12.9167 28.0104 12.9167Z" fill="white"/>
<path fill-rule="evenodd" clip-rule="evenodd" d="M19.1949 18.8015C16.934 18.7986 14.6646 19.6548 12.9374 21.3762C9.48296 24.8189 9.47359 30.4112 12.919 33.863C16.3644 37.3147 21.9611 37.3241 25.4156 33.8813C28.87 30.4386 28.8794 24.8462 25.4339 21.3945C23.7112 19.6686 21.4557 18.8045 19.1949 18.8015V18.8015ZM19.1765 21.744C20.2071 21.7451 21.2423 22.0147 22.158 22.5531L14.0969 30.6079C12.7657 28.3495 13.074 25.3908 15.0171 23.4542C16.1686 22.3066 17.6693 21.742 19.1765 21.744ZM24.2561 24.6312C25.5965 26.8914 25.2828 29.8629 23.3359 31.8033C21.3908 33.7418 18.4342 34.0267 16.1766 32.686L24.2561 24.6312Z" fill="#FF5555"/>
<path fill-rule="evenodd" clip-rule="evenodd" d="M10.3515 5.56073C9.22129 5.55896 8.08683 5.9873 7.2234 6.8479C5.49654 8.56911 5.49184 11.365 7.2142 13.0907C8.93656 14.8164 11.7344 14.8211 13.4612 13.0999C15.1881 11.3787 15.1927 8.5828 13.4704 6.8571C12.6092 5.99424 11.4817 5.56219 10.3515 5.56071V5.56073ZM10.3423 7.03178C10.8575 7.03237 11.375 7.16715 11.8327 7.43633L7.80302 11.4634C7.13754 10.3342 7.29166 8.85503 8.26301 7.88685C8.83864 7.31311 9.58885 7.0308 10.3423 7.03178V7.03178ZM12.8816 8.47526C13.5517 9.60525 13.3949 11.0909 12.4216 12.061C11.4492 13.0301 9.97121 13.1726 8.84263 12.5023L12.8816 8.47526Z" fill="white"/>
<path fill-rule="evenodd" clip-rule="evenodd" d="M28.0195 40.8695C26.8893 40.8678 25.7549 41.2961 24.8915 42.1567C23.1646 43.8779 23.1599 46.6738 24.8823 48.3995C26.6046 50.1252 29.4024 50.1299 31.1293 48.4087C32.8561 46.6875 32.8608 43.8916 31.1384 42.1659C30.2773 41.3031 29.1497 40.871 28.0195 40.8695V40.8695ZM28.0104 42.3406C28.5255 42.3412 29.0431 42.476 29.5008 42.7451L25.4711 46.7722C24.8056 45.643 24.9597 44.1638 25.9311 43.1957C26.5067 42.6219 27.2569 42.3396 28.0104 42.3406V42.3406ZM30.5497 43.7841C31.2197 44.9141 31.0629 46.3997 30.0896 47.3698C29.1173 48.339 27.6393 48.4814 26.5107 47.8111L30.5497 43.7841Z" fill="white"/>
</svg>
